<svg xmlns="http://www.w3.org/2000/svg" width="110" height="110" version="1.0"><path fill="#F3B607" d="M45.234 60.033a1.146 1.146 0 0 0-1.087-.784h-7.515c-.493 0-.931.316-1.087.784l-4.071 12.213a.572.572 0 0 0 .543.754h16.745a.575.575 0 0 0 .544-.754l-4.072-12.213z"/><path fill="#F3B607" d="M54.179 46.282a1.146 1.146 0 0 0-1.087-.784h-7.515c-.493 0-.931.316-1.087.784l-4.071 12.213a.572.572 0 0 0 .544.754h16.745a.575.575 0 0 0 .544-.754l-4.073-12.213z"/><path fill="#F3B607" d="M63.125 60.033a1.146 1.146 0 0 0-1.087-.784h-7.515c-.493 0-.931.316-1.087.784l-4.071 12.213a.572.572 0 0 0 .543.754h16.745a.575.575 0 0 0 .544-.754l-4.072-12.213z"/><path fill="#FBE158" d="M44.147 59.249h-7.515c-.493 0-.931.316-1.087.784l-4.071 12.213a.559.559 0 0 0 .235.659L44.984 59.63a1.136 1.136 0 0 0-.837-.381zM53.081 45.498h-7.515c-.493 0-.931.316-1.087.784l-4.071 12.213a.559.559 0 0 0 .235.659l13.275-13.275a1.134 1.134 0 0 0-.837-.381z"/><path fill="#F3B607" d="M62.9 32.532a1.146 1.146 0 0 0-1.087-.784h-7.515c-.493 0-.931.316-1.087.784L49.14 44.745a.572.572 0 0 0 .544.754h16.745a.575.575 0 0 0 .544-.754L62.9 32.532z"/><path fill="#FBE158" d="M61.801 31.748h-7.515c-.493 0-.931.316-1.087.784l-4.071 12.213a.559.559 0 0 0 .235.659l13.275-13.275a1.134 1.134 0 0 0-.837-.381z"/><path fill="#F3B607" d="M71.9 46.282a1.146 1.146 0 0 0-1.087-.784h-7.515c-.493 0-.931.316-1.087.784L58.14 58.495a.572.572 0 0 0 .544.754h16.745a.575.575 0 0 0 .544-.754L71.9 46.282z"/><path fill="#FBE158" d="M70.801 45.498h-7.515c-.493 0-.931.316-1.087.784l-4.071 12.213a.559.559 0 0 0 .235.659l13.275-13.275a1.134 1.134 0 0 0-.837-.381zM62.037 59.249h-7.515c-.493 0-.931.316-1.087.784l-4.071 12.213a.559.559 0 0 0 .235.659L62.875 59.63a1.138 1.138 0 0 0-.838-.381z"/><path fill="#F3B607" d="M81.125 60.033a1.146 1.146 0 0 0-1.087-.784h-7.515c-.493 0-.931.316-1.087.784l-4.071 12.213a.572.572 0 0 0 .543.754h16.745a.575.575 0 0 0 .544-.754l-4.072-12.213z"/><path fill="#FBE158" d="M80.037 59.249h-7.515c-.493 0-.931.316-1.087.784l-4.071 12.213a.559.559 0 0 0 .235.659L80.875 59.63a1.138 1.138 0 0 0-.838-.381z"/><path fill="#F0F1F1" d="M87 81H31a4 4 0 0 1-4-4v-4h60v8z"/><path fill="#CFD3D4" d="M31 73h-4V38a1 1 0 0 0-1-1h-3v-4h6a2 2 0 0 1 2 2v38z"/><circle cx="35" cy="81" r="6" fill="#3E3E3F"/><circle cx="35" cy="81" r="1.5" fill="#FFF"/><circle cx="77" cy="81" r="6" fill="#3E3E3F"/><circle cx="77" cy="81" r="1.5" fill="#FFF"/><path fill="#FFF" d="M85.398 39.134a.12.12 0 0 0 .102-.119v-.031a.12.12 0 0 0-.102-.119c-3.342-.501-5.263-2.423-5.764-5.764a.12.12 0 0 0-.119-.101h-.03a.12.12 0 0 0-.119.102c-.501 3.341-2.422 5.263-5.764 5.764a.12.12 0 0 0-.102.119v.03c0 .059.043.11.102.119 3.342.501 5.263 2.423 5.764 5.764a.12.12 0 0 0 .119.102h.043a.105.105 0 0 0 .104-.089c.498-3.349 2.42-5.275 5.766-5.777zM46.932 31.339A.08.08 0 0 0 47 31.26v-.02a.08.08 0 0 0-.068-.079c-2.228-.334-3.508-1.615-3.843-3.843a.08.08 0 0 0-.079-.068h-.02a.08.08 0 0 0-.079.068c-.334 2.227-1.615 3.508-3.843 3.843a.08.08 0 0 0-.068.079v.02c0 .04.029.073.068.079 2.228.334 3.508 1.615 3.843 3.843a.08.08 0 0 0 .079.068h.029a.07.07 0 0 0 .069-.06c.332-2.232 1.613-3.516 3.844-3.851z"/></svg>