<svg xmlns="http://www.w3.org/2000/svg" data-name="Layer 1" viewBox="0 0 512 512"><path fill="#00efd1" d="M482.4,143.6a10.137,10.137,0,0,0-8-4h-78a10.009,10.009,0,0,0-.6,20,107.045,107.045,0,0,1-213.6,0,10,10,0,0,0-.2-20H121.3l-7.1-40.3A60.111,60.111,0,0,0,65.6,50.7L39.5,46.1A10,10,0,1,0,36,65.8l26,4.6a39.993,39.993,0,0,1,32.4,32.4l35.4,199.7A49.9,49.9,0,0,0,179,343.8H389a49.862,49.862,0,0,0,47.9-35.5l47-155.8A9.73,9.73,0,0,0,482.4,143.6Z"/><circle cx="387.9" cy="422.3" r="44.4" fill="#00acea"/><path fill="#fedb41" d="M396,149.6v2.7a107,107,0,0,1-214,0v-2.7a107.035,107.035,0,0,1,214,0Z"/><circle cx="177.9" cy="422.3" r="44.4" fill="#00acea"/><path fill="#00acea" d="M325.6,196.4a47.322,47.322,0,0,1-50.4-10.7,45.584,45.584,0,0,1-7.4-9.6h45.4a10,10,0,0,0,0-20H261.6a50.479,50.479,0,0,1-.1-5.5h57.6a10,10,0,0,0,0-20H266.7a48.116,48.116,0,0,1,8.5-11.6,47.322,47.322,0,0,1,50.4-10.7,9.972,9.972,0,0,0,7.2-18.6A67.364,67.364,0,0,0,245,130.6H234.7a10,10,0,0,0,0,20h6.7c0,1.8,0,3.7.1,5.5h-6.8a10,10,0,0,0,0,20h11A68.954,68.954,0,0,0,261,199.9a67.179,67.179,0,0,0,71.7,15.2,9.928,9.928,0,0,0,5.7-12.9A9.684,9.684,0,0,0,325.6,196.4Z" data-name="&lt;Group&gt;"/></svg>