<svg width="25" height="24" viewBox="0 0 25 24" fill="none" xmlns="http://www.w3.org/2000/svg">
<path d="M17.6441 11.7534C17.8163 11.8727 17.8163 12.1273 17.6441 12.2466L10.9708 16.8699C10.7719 17.0078 10.5 16.8654 10.5 16.6233V7.37666C10.5 7.13461 10.7719 6.99222 10.9708 7.13006L17.6441 11.7534Z" fill="#FFE897"/>
<mask id="mask0_114_27" style="mask-type:alpha" maskUnits="userSpaceOnUse" x="3" y="3" width="20" height="18">
<path d="M3 3.993C3.00183 3.73038 3.1069 3.47902 3.29251 3.29322C3.47813 3.10742 3.72938 3.00209 3.992 3H22.008C22.556 3 23 3.445 23 3.993V20.007C22.9982 20.2696 22.8931 20.521 22.7075 20.7068C22.5219 20.8926 22.2706 20.9979 22.008 21H3.992C3.72881 20.9997 3.4765 20.895 3.29049 20.7088C3.10448 20.5226 3 20.2702 3 20.007V3.993ZM11.622 8.415C11.5618 8.37485 11.4919 8.35177 11.4196 8.34822C11.3473 8.34467 11.2755 8.36079 11.2116 8.39486C11.1478 8.42893 11.0944 8.47967 11.0572 8.54168C11.0199 8.60369 11.0001 8.67465 11 8.747V15.253C11.0001 15.3253 11.0199 15.3963 11.0572 15.4583C11.0944 15.5203 11.1478 15.5711 11.2116 15.6051C11.2755 15.6392 11.3473 15.6553 11.4196 15.6518C11.4919 15.6482 11.5618 15.6252 11.622 15.585L16.501 12.333C16.5559 12.2965 16.6009 12.247 16.632 12.1889C16.6631 12.1308 16.6794 12.0659 16.6794 12C16.6794 11.9341 16.6631 11.8692 16.632 11.8111C16.6009 11.753 16.5559 11.7035 16.501 11.667L11.621 8.415H11.622Z" fill="url(#paint0_linear_114_27)"/>
</mask>
<g mask="url(#mask0_114_27)">
<path d="M3 3.993C3.00183 3.73038 3.1069 3.47902 3.29251 3.29322C3.47813 3.10742 3.72938 3.00209 3.992 3H22.008C22.556 3 23 3.445 23 3.993V20.007C22.9982 20.2696 22.8931 20.521 22.7075 20.7068C22.5219 20.8926 22.2706 20.9979 22.008 21H3.992C3.72881 20.9997 3.4765 20.895 3.29049 20.7088C3.10448 20.5226 3 20.2702 3 20.007V3.993ZM11.622 8.415C11.5618 8.37485 11.4919 8.35177 11.4196 8.34822C11.3473 8.34467 11.2755 8.36079 11.2116 8.39486C11.1478 8.42893 11.0944 8.47967 11.0572 8.54168C11.0199 8.60369 11.0001 8.67465 11 8.747V15.253C11.0001 15.3253 11.0199 15.3963 11.0572 15.4583C11.0944 15.5203 11.1478 15.5711 11.2116 15.6051C11.2755 15.6392 11.3473 15.6553 11.4196 15.6518C11.4919 15.6482 11.5618 15.6252 11.622 15.585L16.501 12.333C16.5559 12.2965 16.6009 12.247 16.632 12.1889C16.6631 12.1308 16.6794 12.0659 16.6794 12C16.6794 11.9341 16.6631 11.8692 16.632 11.8111C16.6009 11.753 16.5559 11.7035 16.501 11.667L11.621 8.415H11.622Z" fill="url(#paint1_linear_114_27)"/>
<path d="M10.5 12C6.9 12 3.33333 11.3333 2 11L-0.5 22.5L25 23L25.5 10C22 10.6667 14.1 12 10.5 12Z" fill="black" fill-opacity="0.08"/>
<path d="M9.34408 11.7534C9.51628 11.8727 9.51628 12.1273 9.34408 12.2466L6.42086 14.2719C6.2219 14.4097 5.95001 14.2673 5.95001 14.0253V9.97474C5.95001 9.73269 6.2219 9.59029 6.42086 9.72814L9.34408 11.7534Z" fill="#FFF1BD" fill-opacity="0.5"/>
<path d="M21.6441 11.7534C21.8163 11.8727 21.8163 12.1273 21.6441 12.2466L18.7208 14.2719C18.5219 14.4097 18.25 14.2673 18.25 14.0253V9.97474C18.25 9.73269 18.5219 9.59029 18.7208 9.72814L21.6441 11.7534Z" fill="#FFF1BD" fill-opacity="0.5"/>
</g>
<path d="M5.43979 5.84997C5.63804 5.91767 5.70763 6.16256 5.57459 6.32439L2.41236 10.1711C2.25865 10.358 1.95819 10.2954 1.89203 10.0626L0.341782 4.60679C0.275624 4.37396 0.498237 4.16267 0.727298 4.24089L5.43979 5.84997Z" fill="#FFF1BD" fill-opacity="0.5"/>
<path d="M24.6151 18.8159C24.7447 18.9805 24.6699 19.2239 24.4702 19.2873L22.392 19.9479C22.1613 20.0212 21.9432 19.8052 22.0143 19.5738L22.744 17.1996C22.8151 16.9683 23.1168 16.912 23.2665 17.1022L24.6151 18.8159Z" fill="#FFF1BD" fill-opacity="0.5"/>
<defs>
<linearGradient id="paint0_linear_114_27" x1="13" y1="3" x2="13" y2="21" gradientUnits="userSpaceOnUse">
<stop stop-color="#FF927A"/>
<stop offset="1" stop-color="#FFBA7A"/>
</linearGradient>
<linearGradient id="paint1_linear_114_27" x1="13" y1="3" x2="13" y2="21" gradientUnits="userSpaceOnUse">
<stop stop-color="#FF927A"/>
<stop offset="1" stop-color="#FFBA7A"/>
</linearGradient>
</defs>
</svg>
