<svg width="27" height="24" viewBox="0 0 27 24" fill="none" xmlns="http://www.w3.org/2000/svg">
<mask id="mask0_112_3" style="mask-type:alpha" maskUnits="userSpaceOnUse" x="1" y="3" width="24" height="19">
<path d="M5.87301 3H20.127C20.2848 2.99998 20.4404 3.0373 20.581 3.1089C20.7216 3.18051 20.8432 3.28437 20.936 3.412L24.759 8.668C24.827 8.76152 24.8604 8.8757 24.8537 8.99112C24.8469 9.10653 24.8004 9.21603 24.722 9.301L13.367 21.602C13.3202 21.6526 13.2634 21.693 13.2003 21.7206C13.1371 21.7482 13.0689 21.7624 13 21.7624C12.9311 21.7624 12.8629 21.7482 12.7997 21.7206C12.7366 21.693 12.6798 21.6526 12.633 21.602L1.27801 9.302C1.19936 9.21697 1.15268 9.10726 1.14593 8.99163C1.13918 8.876 1.17279 8.76161 1.24101 8.668L5.06401 3.412C5.15679 3.28437 5.27846 3.18051 5.41906 3.1089C5.55967 3.0373 5.71522 2.99998 5.87301 3Z" fill="url(#paint0_linear_112_3)"/>
</mask>
<g mask="url(#mask0_112_3)">
<path d="M5.87301 3H20.127C20.2848 2.99998 20.4404 3.0373 20.581 3.1089C20.7216 3.18051 20.8432 3.28437 20.936 3.412L24.759 8.668C24.827 8.76152 24.8604 8.8757 24.8537 8.99112C24.8469 9.10653 24.8004 9.21603 24.722 9.301L13.367 21.602C13.3202 21.6526 13.2634 21.693 13.2003 21.7206C13.1371 21.7482 13.0689 21.7624 13 21.7624C12.9311 21.7624 12.8629 21.7482 12.7997 21.7206C12.7366 21.693 12.6798 21.6526 12.633 21.602L1.27801 9.302C1.19936 9.21697 1.15268 9.10726 1.14593 8.99163C1.13918 8.876 1.17279 8.76161 1.24101 8.668L5.06401 3.412C5.15679 3.28437 5.27846 3.18051 5.41906 3.1089C5.55967 3.0373 5.71522 2.99998 5.87301 3Z" fill="url(#paint1_linear_112_3)"/>
<path d="M13.3235 10.5678C8.59713 10.6589 3.06778 9.97523 0.893896 9.62201L0.905319 10.2145L13.5634 23.0099L26.8434 6.75091C24.3061 7.98523 18.0499 10.4767 13.3235 10.5678Z" fill="black" fill-opacity="0.07"/>
<path d="M23.0391 5.45988L26.6995 6.84637C26.74 6.86171 26.7763 6.88642 26.8055 6.91849C26.8346 6.95055 26.8557 6.98906 26.8671 7.03086L27.3376 8.75243C27.346 8.78306 27.3435 8.81564 27.3305 8.84462C27.3175 8.8736 27.2949 8.89719 27.2666 8.91139L23.1541 10.9657C23.1372 10.9742 23.1187 10.979 23.0998 10.98C23.0809 10.9809 23.062 10.9779 23.0443 10.9712C23.0266 10.9645 23.0105 10.9542 22.9969 10.941C22.9834 10.9278 22.9727 10.9119 22.9656 10.8943L21.2462 6.63125C21.2342 6.60177 21.2329 6.56905 21.2424 6.5387C21.2519 6.50835 21.2717 6.48225 21.2983 6.46485L22.7913 5.48699C22.8275 5.46324 22.8689 5.44841 22.912 5.44369C22.955 5.43898 22.9986 5.44453 23.0391 5.45988Z" fill="black" fill-opacity="0.1"/>
<path d="M2.46777 15.4176L8.40029 12.8512C8.46596 12.8228 8.53742 12.8103 8.60883 12.8148C8.68025 12.8193 8.74959 12.8406 8.81118 12.877L11.3487 14.3762C11.3938 14.4029 11.4283 14.4444 11.4462 14.4937C11.4642 14.5429 11.4646 14.5969 11.4472 14.6463L8.93609 21.8105C8.92572 21.84 8.90936 21.867 8.88805 21.8899C8.86673 21.9127 8.84092 21.9309 8.81223 21.9434C8.78354 21.9558 8.7526 21.9621 8.72134 21.962C8.69009 21.9619 8.65919 21.9553 8.6306 21.9427L1.69001 18.8679C1.64197 18.8467 1.60278 18.8094 1.57915 18.7625C1.55553 18.7156 1.54892 18.6619 1.56046 18.6107L2.20524 15.7348C2.22088 15.665 2.25282 15.5998 2.29844 15.5447C2.34407 15.4896 2.40209 15.4461 2.46777 15.4176Z" fill="black" fill-opacity="0.1"/>
</g>
<path d="M0.967769 13.4176L6.90029 10.8512C6.96596 10.8228 7.03742 10.8103 7.10883 10.8148C7.18025 10.8193 7.24959 10.8406 7.31118 10.877L9.84867 12.3762C9.89379 12.4029 9.92827 12.4444 9.94625 12.4937C9.96422 12.5429 9.96457 12.5969 9.94724 12.6463L7.43609 19.8105C7.42572 19.84 7.40936 19.867 7.38805 19.8899C7.36673 19.9127 7.34092 19.9309 7.31223 19.9434C7.28354 19.9558 7.2526 19.9621 7.22134 19.962C7.19009 19.9619 7.15919 19.9553 7.1306 19.9427L0.190011 16.8679C0.141966 16.8467 0.102783 16.8094 0.0791549 16.7625C0.0555264 16.7156 0.0489181 16.6619 0.0604588 16.6107L0.705243 13.7348C0.720879 13.665 0.752815 13.5998 0.798443 13.5447C0.84407 13.4896 0.902093 13.4461 0.967769 13.4176Z" fill="url(#paint2_linear_112_3)"/>
<path d="M22.0391 3.45988L25.6995 4.84637C25.74 4.86171 25.7763 4.88642 25.8055 4.91849C25.8346 4.95055 25.8557 4.98906 25.8671 5.03086L26.3376 6.75243C26.346 6.78306 26.3435 6.81564 26.3305 6.84462C26.3175 6.8736 26.2949 6.89719 26.2666 6.91139L22.1541 8.96572C22.1372 8.97416 22.1187 8.97901 22.0998 8.97995C22.0809 8.9809 22.062 8.97793 22.0443 8.97122C22.0266 8.96452 22.0105 8.95423 21.9969 8.94099C21.9834 8.92776 21.9727 8.91187 21.9656 8.89433L20.2462 4.63125C20.2342 4.60177 20.2329 4.56905 20.2424 4.5387C20.2519 4.50835 20.2717 4.48225 20.2983 4.46485L21.7913 3.48699C21.8275 3.46324 21.8689 3.44841 21.912 3.44369C21.955 3.43898 21.9986 3.44453 22.0391 3.45988Z" fill="url(#paint3_linear_112_3)"/>
<defs>
<linearGradient id="paint0_linear_112_3" x1="12.9998" y1="3" x2="12.9998" y2="21.7624" gradientUnits="userSpaceOnUse">
<stop stop-color="#7BA0FF"/>
<stop offset="1" stop-color="#E2A6FF"/>
</linearGradient>
<linearGradient id="paint1_linear_112_3" x1="12.9998" y1="3" x2="12.9998" y2="21.7624" gradientUnits="userSpaceOnUse">
<stop stop-color="#7BA0FF"/>
<stop offset="1" stop-color="#E2A6FF"/>
</linearGradient>
<linearGradient id="paint2_linear_112_3" x1="3.93395" y1="12.1345" x2="7.31215" y2="19.9434" gradientUnits="userSpaceOnUse">
<stop stop-color="#7BFFE7"/>
<stop offset="1" stop-color="#D8FFA6"/>
</linearGradient>
<linearGradient id="paint3_linear_112_3" x1="23.8692" y1="4.15311" x2="22.0442" y2="8.9712" gradientUnits="userSpaceOnUse">
<stop stop-color="#FF9B7B"/>
<stop offset="1" stop-color="#D8FFA6"/>
</linearGradient>
</defs>
</svg>
