<svg width="24" height="24" viewBox="0 0 24 24" fill="none" xmlns="http://www.w3.org/2000/svg">
<mask id="mask0_125_12" style="mask-type:alpha" maskUnits="userSpaceOnUse" x="1" y="1" width="22" height="20">
<path d="M20 20C20 20.2652 19.8946 20.5196 19.7071 20.7071C19.5196 20.8947 19.2652 21 19 21H5C4.73478 21 4.48043 20.8947 4.29289 20.7071C4.10536 20.5196 4 20.2652 4 20V11H1L11.327 1.61201C11.5111 1.44449 11.7511 1.35165 12 1.35165C12.2489 1.35165 12.4889 1.44449 12.673 1.61201L23 11H20V20Z" fill="#BABCC1"/>
</mask>
<g mask="url(#mask0_125_12)">
<path d="M20 20C20 20.2652 19.8946 20.5196 19.7071 20.7071C19.5196 20.8947 19.2652 21 19 21H5C4.73478 21 4.48043 20.8947 4.29289 20.7071C4.10536 20.5196 4 20.2652 4 20V11H1L11.327 1.61201C11.5111 1.44449 11.7511 1.35165 12 1.35165C12.2489 1.35165 12.4889 1.44449 12.673 1.61201L23 11H20V20Z" fill="url(#paint0_linear_125_12)"/>
<path d="M15.1755 12.2591C15.3371 12.3791 15.3371 12.6209 15.1755 12.7409L10.7288 16.0417C10.5309 16.1886 10.25 16.0473 10.25 15.8008V9.1992C10.25 8.95267 10.5309 8.81137 10.7288 8.95831L15.1755 12.2591Z" fill="white" fill-opacity="0.5"/>
<path d="M25 10C20.3333 10.6667 9 11.6 1 10V22H25V10Z" fill="black" fill-opacity="0.08"/>
</g>
<defs>
<linearGradient id="paint0_linear_125_12" x1="12" y1="1.35165" x2="12" y2="21" gradientUnits="userSpaceOnUse">
<stop stop-color="#DC52FF"/>
<stop offset="0.380208" stop-color="#E28FFF"/>
<stop offset="1" stop-color="#E7BFFF"/>
</linearGradient>
</defs>
</svg>
