<svg width="206" height="172" viewBox="0 0 206 172" fill="none" xmlns="http://www.w3.org/2000/svg">
<g clip-path="url(#clip0_2_6)">
<path d="M49.64 81V45.672H58.184V60.888H57.464C58.264 59.32 59.4 58.136 60.872 57.336C62.344 56.504 64.024 56.088 65.912 56.088C68.76 56.088 70.888 56.936 72.296 58.632C73.704 60.328 74.408 62.904 74.408 66.36V81H65.864V66.744C65.864 65.272 65.592 64.216 65.048 63.576C64.536 62.936 63.752 62.616 62.696 62.616C61.32 62.616 60.216 63.048 59.384 63.912C58.584 64.776 58.184 65.912 58.184 67.32V81H49.64ZM79.4079 91.896L77.3919 85.272C78.9279 84.984 80.2079 84.664 81.2319 84.312C82.2879 83.992 83.1519 83.544 83.8239 82.968C84.4959 82.392 85.0239 81.64 85.4079 80.712L86.6079 77.928L86.4159 81.144L75.7599 56.616H84.7839L91.0239 72.792H89.4399L95.8719 56.616H104.32L93.3759 81.528C92.5119 83.48 91.5839 85.08 90.5919 86.328C89.6319 87.576 88.5759 88.568 87.4239 89.304C86.3039 90.04 85.0719 90.584 83.7279 90.936C82.4159 91.32 80.9759 91.64 79.4079 91.896ZM106.078 91.368V63.24C106.078 62.152 106.046 61.048 105.982 59.928C105.918 58.808 105.822 57.704 105.694 56.616H113.95L114.478 60.936H113.998C114.446 59.496 115.438 58.328 116.974 57.432C118.51 56.536 120.222 56.088 122.11 56.088C124.222 56.088 126.078 56.6 127.677 57.624C129.278 58.616 130.526 60.072 131.422 61.992C132.35 63.88 132.814 66.152 132.814 68.808C132.814 71.432 132.35 73.704 131.422 75.624C130.526 77.544 129.278 79.016 127.677 80.04C126.078 81.032 124.222 81.528 122.11 81.528C120.254 81.528 118.574 81.112 117.07 80.28C115.566 79.416 114.574 78.28 114.094 76.872H114.622V91.368H106.078ZM119.374 75.192C120.846 75.192 122.014 74.696 122.878 73.704C123.774 72.68 124.222 71.048 124.222 68.808C124.222 66.568 123.774 64.952 122.878 63.96C122.014 62.936 120.846 62.424 119.374 62.424C117.934 62.424 116.766 62.936 115.87 63.96C114.974 64.952 114.526 66.568 114.526 68.808C114.526 71.048 114.974 72.68 115.87 73.704C116.766 74.696 117.934 75.192 119.374 75.192ZM149.832 81.528C145.416 81.528 141.976 80.392 139.512 78.12C137.08 75.848 135.864 72.728 135.864 68.76C135.864 66.296 136.376 64.104 137.4 62.184C138.424 60.264 139.864 58.776 141.72 57.72C143.576 56.632 145.752 56.088 148.248 56.088C150.712 56.088 152.76 56.632 154.392 57.72C156.056 58.776 157.304 60.248 158.136 62.136C158.968 63.992 159.384 66.152 159.384 68.616V70.44H143.016V66.408H153.096L152.28 67.08C152.28 65.256 151.928 63.912 151.224 63.048C150.552 62.152 149.592 61.704 148.344 61.704C146.904 61.704 145.8 62.248 145.032 63.336C144.296 64.392 143.928 65.992 143.928 68.136V69C143.928 71.144 144.456 72.712 145.512 73.704C146.568 74.696 148.088 75.192 150.072 75.192C151.352 75.192 152.552 75.048 153.672 74.76C154.824 74.472 155.912 74.008 156.936 73.368L159.144 78.936C157.928 79.768 156.52 80.408 154.92 80.856C153.32 81.304 151.624 81.528 149.832 81.528Z" fill="url(#paint0_linear_2_6)"/>
<path d="M60.4885 127.528C58.4085 127.528 56.5525 127.032 54.9205 126.04C53.2885 125.016 52.0085 123.544 51.0805 121.624C50.1525 119.704 49.6885 117.432 49.6885 114.808C49.6885 112.152 50.1365 109.88 51.0325 107.992C51.9605 106.072 53.2405 104.616 54.8725 103.624C56.5365 102.6 58.4085 102.088 60.4885 102.088C62.3445 102.088 64.0245 102.52 65.5285 103.384C67.0325 104.216 68.0405 105.336 68.5525 106.744H67.8325V91.672H76.3765V127H67.9765V122.632H68.6005C68.1525 124.104 67.1605 125.288 65.6245 126.184C64.1205 127.08 62.4085 127.528 60.4885 127.528ZM63.2245 121.192C64.6325 121.192 65.7845 120.696 66.6805 119.704C67.6085 118.68 68.0725 117.048 68.0725 114.808C68.0725 112.568 67.6085 110.952 66.6805 109.96C65.7845 108.936 64.6325 108.424 63.2245 108.424C61.7845 108.424 60.6005 108.936 59.6725 109.96C58.7765 110.952 58.3285 112.568 58.3285 114.808C58.3285 117.048 58.7765 118.68 59.6725 119.704C60.6005 120.696 61.7845 121.192 63.2245 121.192ZM81.6831 127V109.288C81.6831 108.168 81.6511 107.048 81.5871 105.928C81.5231 104.808 81.4271 103.704 81.2991 102.616H89.5551L90.4671 110.104H89.1711C89.4911 108.28 90.0031 106.776 90.7071 105.592C91.4111 104.408 92.2911 103.528 93.3471 102.952C94.4031 102.376 95.6511 102.088 97.0911 102.088C97.7631 102.088 98.2591 102.12 98.5791 102.184C98.9311 102.216 99.2991 102.312 99.6831 102.472V109.96C98.8831 109.608 98.2431 109.384 97.7631 109.288C97.2831 109.192 96.6591 109.144 95.8911 109.144C94.5791 109.144 93.5071 109.384 92.6751 109.864C91.8431 110.312 91.2351 111.016 90.8511 111.976C90.4991 112.936 90.3231 114.168 90.3231 115.672V127H81.6831ZM114.031 127.528C111.311 127.528 108.959 127.016 106.975 125.992C104.991 124.968 103.455 123.512 102.367 121.624C101.279 119.704 100.735 117.432 100.735 114.808C100.735 112.152 101.279 109.88 102.367 107.992C103.455 106.104 104.991 104.648 106.975 103.624C108.959 102.6 111.311 102.088 114.031 102.088C116.719 102.088 119.055 102.6 121.039 103.624C123.023 104.648 124.559 106.12 125.647 108.04C126.735 109.928 127.279 112.184 127.279 114.808C127.279 117.4 126.735 119.656 125.647 121.576C124.559 123.496 123.023 124.968 121.039 125.992C119.055 127.016 116.719 127.528 114.031 127.528ZM114.031 121.192C115.439 121.192 116.559 120.696 117.391 119.704C118.223 118.68 118.639 117.048 118.639 114.808C118.639 112.568 118.223 110.952 117.391 109.96C116.559 108.936 115.439 108.424 114.031 108.424C112.591 108.424 111.455 108.936 110.623 109.96C109.791 110.952 109.375 112.568 109.375 114.808C109.375 117.048 109.791 118.68 110.623 119.704C111.455 120.696 112.591 121.192 114.031 121.192ZM131.464 137.368V109.24C131.464 108.152 131.432 107.048 131.368 105.928C131.304 104.808 131.208 103.704 131.08 102.616H139.336L139.864 106.936H139.384C139.832 105.496 140.824 104.328 142.36 103.432C143.896 102.536 145.608 102.088 147.496 102.088C149.608 102.088 151.464 102.6 153.064 103.624C154.664 104.616 155.912 106.072 156.808 107.992C157.736 109.88 158.2 112.152 158.2 114.808C158.2 117.432 157.736 119.704 156.808 121.624C155.912 123.544 154.664 125.016 153.064 126.04C151.464 127.032 149.608 127.528 147.496 127.528C145.64 127.528 143.96 127.112 142.456 126.28C140.952 125.416 139.96 124.28 139.48 122.872H140.008V137.368H131.464ZM144.76 121.192C146.232 121.192 147.4 120.696 148.264 119.704C149.16 118.68 149.608 117.048 149.608 114.808C149.608 112.568 149.16 110.952 148.264 109.96C147.4 108.936 146.232 108.424 144.76 108.424C143.32 108.424 142.152 108.936 141.256 109.96C140.36 110.952 139.912 112.568 139.912 114.808C139.912 117.048 140.36 118.68 141.256 119.704C142.152 120.696 143.32 121.192 144.76 121.192Z" fill="white"/>
</g>
<defs>
<linearGradient id="paint0_linear_2_6" x1="106.5" y1="-23" x2="106.5" y2="149" gradientUnits="userSpaceOnUse">
<stop stop-color="#FFA800"/>
<stop offset="0.979167" stop-color="#B900FF"/>
<stop offset="0.9997" stop-color="#FA710E"/>
<stop offset="0.9998" stop-color="#B561D6" stop-opacity="0.0416667"/>
<stop offset="0.9999" stop-color="#B561D6" stop-opacity="0.01"/>
<stop offset="0.9999" stop-color="#B561D6" stop-opacity="0.01"/>
</linearGradient>
<clipPath id="clip0_2_6">
<rect width="206" height="172" fill="white"/>
</clipPath>
</defs>
</svg>
