<svg width="71" height="57" viewBox="0 0 71 57" fill="none" xmlns="http://www.w3.org/2000/svg">
<path d="M69.3776 8.89913C71 15.2475 71 28.5 71 28.5C71 28.5 71 41.7525 69.3776 48.1009C68.4759 51.6099 65.8383 54.3709 62.4977 55.3043C56.4308 57 35.5 57 35.5 57C35.5 57 14.5798 57 8.50225 55.3043C5.1475 54.3566 2.5134 51.5993 1.62235 48.1009C1.05798e-07 41.7525 0 28.5 0 28.5C0 28.5 1.05798e-07 15.2475 1.62235 8.89913C2.52405 5.39006 5.1617 2.62912 8.50225 1.69575C14.5798 -6.37025e-07 35.5 0 35.5 0C35.5 0 56.4308 -6.37025e-07 62.4977 1.69575C65.8525 2.64337 68.4866 5.40075 69.3776 8.89913V8.89913ZM28.4 40.9688L49.7 28.5L28.4 16.0312V40.9688Z" fill="#FF0000"/>
</svg>
