<svg width="24" height="24" viewBox="0 0 24 24" fill="none" xmlns="http://www.w3.org/2000/svg">
<mask id="mask0_113_17" style="mask-type:alpha" maskUnits="userSpaceOnUse" x="0" y="3" width="24" height="19">
<path d="M4.87301 3H19.127C19.2848 2.99998 19.4404 3.0373 19.581 3.1089C19.7216 3.18051 19.8432 3.28437 19.936 3.412L23.759 8.668C23.827 8.76152 23.8604 8.8757 23.8537 8.99112C23.8469 9.10653 23.8004 9.21603 23.722 9.301L12.367 21.602C12.3202 21.6526 12.2634 21.693 12.2003 21.7206C12.1371 21.7482 12.0689 21.7624 12 21.7624C11.9311 21.7624 11.8629 21.7482 11.7997 21.7206C11.7366 21.693 11.6798 21.6526 11.633 21.602L0.278013 9.302C0.199364 9.21697 0.152679 9.10726 0.14593 8.99163C0.139182 8.876 0.17279 8.76161 0.241013 8.668L4.06401 3.412C4.15679 3.28437 4.27846 3.18051 4.41906 3.1089C4.55967 3.0373 4.71522 2.99998 4.87301 3Z" fill="url(#paint0_linear_113_17)"/>
</mask>
<g mask="url(#mask0_113_17)">
<path d="M4.87301 3H19.127C19.2848 2.99998 19.4404 3.0373 19.581 3.1089C19.7216 3.18051 19.8432 3.28437 19.936 3.412L23.759 8.668C23.827 8.76152 23.8604 8.8757 23.8537 8.99112C23.8469 9.10653 23.8004 9.21603 23.722 9.301L12.367 21.602C12.3202 21.6526 12.2634 21.693 12.2003 21.7206C12.1371 21.7482 12.0689 21.7624 12 21.7624C11.9311 21.7624 11.8629 21.7482 11.7997 21.7206C11.7366 21.693 11.6798 21.6526 11.633 21.602L0.278013 9.302C0.199364 9.21697 0.152679 9.10726 0.14593 8.99163C0.139182 8.876 0.17279 8.76161 0.241013 8.668L4.06401 3.412C4.15679 3.28437 4.27846 3.18051 4.41906 3.1089C4.55967 3.0373 4.71522 2.99998 4.87301 3Z" fill="url(#paint1_linear_113_17)"/>
<path d="M12.3235 10.5678C7.59713 10.6589 2.06778 9.97523 -0.106104 9.62201L-0.0946812 10.2145L12.5634 23.0099L25.8434 6.75091C23.3061 7.98523 17.0499 10.4767 12.3235 10.5678Z" fill="black" fill-opacity="0.04"/>
</g>
<defs>
<linearGradient id="paint0_linear_113_17" x1="11.9998" y1="3" x2="11.9998" y2="21.7624" gradientUnits="userSpaceOnUse">
<stop stop-color="#7BA0FF"/>
<stop offset="1" stop-color="#E2A6FF"/>
</linearGradient>
<linearGradient id="paint1_linear_113_17" x1="11.9998" y1="3" x2="11.9998" y2="21.7624" gradientUnits="userSpaceOnUse">
<stop stop-color="#FFDD66"/>
<stop offset="1" stop-color="#FF9365"/>
</linearGradient>
</defs>
</svg>
