<svg width="131" height="109" viewBox="0 0 131 109" fill="none" xmlns="http://www.w3.org/2000/svg">
<path fill-rule="evenodd" clip-rule="evenodd" d="M8.92914 46.6C43.9291 31.4 67.2291 21.3 78.9291 16.4C112.229 2.5 119.229 0.1 123.729 0C124.729 0 126.929 0.200001 128.429 1.4C129.629 2.4 129.929 3.7 130.129 4.7C130.329 5.7 130.529 7.8 130.329 9.4C128.529 28.4 120.729 74.5 116.729 95.7C115.029 104.7 111.729 107.7 108.529 108C101.529 108.6 96.2291 103.4 89.5291 99C78.9291 92.1 73.0291 87.8 62.7291 81C50.8291 73.2 58.5291 68.9 65.3291 61.9C67.1291 60.1 97.8291 32.1 98.4291 29.6C98.5291 29.3 98.5291 28.1 97.8291 27.5C97.1291 26.9 96.1291 27.1 95.3291 27.3C94.2291 27.5 77.4291 38.7 44.7291 60.8C39.9291 64.1 35.6291 65.7 31.7291 65.6C27.4291 65.5 19.2291 63.2 13.0291 61.2C5.52914 58.8 -0.470863 57.5 0.0291371 53.3C0.329137 51.1 3.32914 48.9 8.92914 46.6Z" fill="#A8C1FF"/>
</svg>
