<svg width="72" height="72" viewBox="0 0 72 72" fill="none" xmlns="http://www.w3.org/2000/svg">
<path d="M36 55C32.3476 55 29.2679 53.7488 26.7607 51.2463C24.2536 48.7439 23 45.6699 23 42.0244V29.9756C23 26.3301 24.2536 23.2561 26.7607 20.7537C29.2679 18.2512 32.3476 17 36 17C39.6524 17 42.7321 18.2512 45.2393 20.7537C47.7464 23.2561 49 26.3301 49 29.9756V42.0244C49 45.6699 47.7464 48.7439 45.2393 51.2463C42.7321 53.7488 39.6524 55 36 55ZM37.3929 29.9756H46.2143C46.2143 27.4732 45.394 25.2488 43.7536 23.3024C42.1131 21.3561 39.9929 20.213 37.3929 19.8732V29.9756ZM25.7857 29.9756H34.6071V19.8732C32.0071 20.213 29.8869 21.3561 28.2464 23.3024C26.606 25.2488 25.7857 27.4732 25.7857 29.9756ZM36 52.2195C38.8167 52.2195 41.2232 51.2232 43.2196 49.2305C45.2161 47.2378 46.2143 44.8358 46.2143 42.0244V32.7561H25.7857V42.0244C25.7857 44.8358 26.7839 47.2378 28.7804 49.2305C30.7768 51.2232 33.1833 52.2195 36 52.2195Z" fill="white"/>
<circle cx="36" cy="36" r="29.5" stroke="white" stroke-width="3"/>
</svg>
