<svg width="71" height="69" viewBox="0 0 71 69" fill="none" xmlns="http://www.w3.org/2000/svg">
<path fill-rule="evenodd" clip-rule="evenodd" d="M64.1426 36.1562L52.9932 35.706C49.5817 35.706 45.7172 36.8359 42.7588 39.5458C38.8943 43.165 38.4412 49.035 40.0314 52.8837C41.6216 56.7235 46.1703 58.9833 50.7189 58.0741C54.3613 57.4032 56.1826 54.0136 55.9516 51.0741C55.7206 48.5849 54.1304 47.2343 52.3091 47.2343C50.4968 47.2343 49.8127 48.1347 49.5817 49.035C49.3596 49.9442 49.8127 50.6239 50.4968 51.0741C51.6339 51.9745 49.5817 54.6844 47.0853 53.1044C45.7172 52.204 44.58 50.1649 44.811 47.6845C45.2641 44.2948 47.9915 41.1259 52.9932 41.1259C58.2259 41.1259 61.8683 44.2948 63.0055 49.035C64.5957 54.9139 61.4064 62.1434 54.1304 65.9832C45.2641 70.7323 30.2501 70.2821 22.0679 61.6932C17.2883 56.7235 15.6981 50.1649 16.1512 44.0653C16.3821 42.0351 16.6042 39.996 17.0573 37.9657C17.2883 37.2861 16.8352 36.6064 15.9202 36.3857H1.82122C0.915053 36.3857 0 35.706 0 34.5761C0 34.3466 0 34.3466 0 34.1259L4.32652 15.5976C4.54862 14.4678 5.68577 13.5586 6.82293 13.5586H21.3838C22.0679 13.5586 22.7431 13.1084 22.9741 12.4287L25.2484 1.80957C25.4794 0.679694 26.6165 0 27.5227 0H47.5384C48.4446 0 49.1286 0.679692 49.1286 1.58007C49.1286 1.80957 49.1286 1.80958 49.1286 2.03908L47.0853 12.6582C47.0853 13.1084 47.3074 13.5586 47.7605 13.5586H69.3665C70.2815 13.5586 70.9656 14.2383 70.9656 15.3681C70.9656 15.5976 70.9656 15.5976 70.9656 15.8183L66.186 34.3466C65.7329 35.706 65.0488 36.3857 64.1426 36.1562Z" fill="#19D66B"/>
</svg>
